<?xml version="1.0" encoding="utf-8"?>
<!-- Generator: Adobe Illustrator 23.0.3, SVG Export Plug-In . SVG Version: 6.00 Build 0)  -->
<svg version="1.1" id="Слой_1" xmlns="http://www.w3.org/2000/svg" xmlns:xlink="http://www.w3.org/1999/xlink" x="0px" y="0px"
	 viewBox="0 0 1024 1024" style="enable-background:new 0 0 1024 1024;" xml:space="preserve">
<style type="text/css">
	.st0{fill:url(#SVGID_1_);}
	.st1{fill:url(#SVGID_2_);}
	.st2{fill:url(#SVGID_3_);}
	.st3{fill:url(#SVGID_4_);}
	.st4{fill:url(#SVGID_5_);}
	.st5{fill:url(#SVGID_6_);}
	.st6{fill:url(#SVGID_7_);}
</style>
<g>
	<g>
		<linearGradient id="SVGID_1_" gradientUnits="userSpaceOnUse" x1="21.7608" y1="1017.5813" x2="759.2344" y2="122.9412">
			<stop  offset="0" style="stop-color:#64FFC0"/>
			<stop  offset="3.719538e-02" style="stop-color:#60F7C3"/>
			<stop  offset="0.5129" style="stop-color:#2D94E3"/>
			<stop  offset="0.8439" style="stop-color:#0D55F7"/>
			<stop  offset="1" style="stop-color:#003DFF"/>
		</linearGradient>
		<path class="st0" d="M744.2,997.7H132.1c-25.8,0-46.8-21-46.8-46.8V74.1c0-25.8,21-46.8,46.8-46.8h612.1c25.8,0,46.8,21,46.8,46.8
			v876.7C791,976.7,770,997.7,744.2,997.7z M151.1,931.8h574V93.2h-574V931.8z"/>
	</g>
	<g>
		<linearGradient id="SVGID_2_" gradientUnits="userSpaceOnUse" x1="-298.804" y1="753.3319" x2="439.389" y2="-142.181">
			<stop  offset="0" style="stop-color:#64FFC0"/>
			<stop  offset="3.719538e-02" style="stop-color:#60F7C3"/>
			<stop  offset="0.5129" style="stop-color:#2D94E3"/>
			<stop  offset="0.8439" style="stop-color:#0D55F7"/>
			<stop  offset="1" style="stop-color:#003DFF"/>
		</linearGradient>
		<path class="st1" d="M182.7,299.9H56.3c-29.8,0-54-24.2-54-54s24.2-54,54-54h126.4c29.8,0,54,24.2,54,54S212.5,299.9,182.7,299.9z
			 M182.7,257.7L182.7,257.7L182.7,257.7z"/>
	</g>
	<g>
		<linearGradient id="SVGID_3_" gradientUnits="userSpaceOnUse" x1="-65.6357" y1="945.5383" x2="672.5574" y2="50.0254">
			<stop  offset="0" style="stop-color:#64FFC0"/>
			<stop  offset="3.719538e-02" style="stop-color:#60F7C3"/>
			<stop  offset="0.5129" style="stop-color:#2D94E3"/>
			<stop  offset="0.8439" style="stop-color:#0D55F7"/>
			<stop  offset="1" style="stop-color:#003DFF"/>
		</linearGradient>
		<path class="st2" d="M619.1,434.2H328.2c-25.8,0-46.8-21-46.8-46.8V195.3c0-25.8,21-46.8,46.8-46.8h290.9
			c25.8,0,46.8,21,46.8,46.8v192.1C665.9,413.2,644.9,434.2,619.1,434.2z M347.3,368.3h252.8v-154H347.3V368.3z"/>
	</g>
	<g>
		<linearGradient id="SVGID_4_" gradientUnits="userSpaceOnUse" x1="-208.9817" y1="827.3747" x2="529.2114" y2="-68.1383">
			<stop  offset="0" style="stop-color:#64FFC0"/>
			<stop  offset="3.719538e-02" style="stop-color:#60F7C3"/>
			<stop  offset="0.5129" style="stop-color:#2D94E3"/>
			<stop  offset="0.8439" style="stop-color:#0D55F7"/>
			<stop  offset="1" style="stop-color:#003DFF"/>
		</linearGradient>
		<path class="st3" d="M182.7,482.9H56.3c-29.8,0-54-24.2-54-54s24.2-54,54-54h126.4c29.8,0,54,24.2,54,54S212.5,482.9,182.7,482.9z
			 M182.7,440.7L182.7,440.7L182.7,440.7z"/>
	</g>
	<g>
		<linearGradient id="SVGID_5_" gradientUnits="userSpaceOnUse" x1="-119.9433" y1="900.7712" x2="618.2498" y2="5.2583">
			<stop  offset="0" style="stop-color:#64FFC0"/>
			<stop  offset="3.719538e-02" style="stop-color:#60F7C3"/>
			<stop  offset="0.5129" style="stop-color:#2D94E3"/>
			<stop  offset="0.8439" style="stop-color:#0D55F7"/>
			<stop  offset="1" style="stop-color:#003DFF"/>
		</linearGradient>
		<path class="st4" d="M181.4,665.9H55c-29.8,0-54-24.2-54-54s24.2-54,54-54h126.4c29.8,0,54,24.2,54,54S211.1,665.9,181.4,665.9z
			 M181.4,623.8L181.4,623.8L181.4,623.8z"/>
	</g>
	<g>
		<linearGradient id="SVGID_6_" gradientUnits="userSpaceOnUse" x1="-30.1209" y1="974.814" x2="708.0722" y2="79.301">
			<stop  offset="0" style="stop-color:#64FFC0"/>
			<stop  offset="3.719538e-02" style="stop-color:#60F7C3"/>
			<stop  offset="0.5129" style="stop-color:#2D94E3"/>
			<stop  offset="0.8439" style="stop-color:#0D55F7"/>
			<stop  offset="1" style="stop-color:#003DFF"/>
		</linearGradient>
		<path class="st5" d="M181.4,848.9H55c-29.8,0-54-24.2-54-54s24.2-54,54-54h126.4c29.8,0,54,24.2,54,54S211.1,848.9,181.4,848.9z
			 M181.4,806.8L181.4,806.8L181.4,806.8z"/>
	</g>
	<g>
		<linearGradient id="SVGID_7_" gradientUnits="userSpaceOnUse" x1="375.052" y1="1308.8079" x2="1113.2451" y2="413.2949">
			<stop  offset="0" style="stop-color:#64FFC0"/>
			<stop  offset="3.719538e-02" style="stop-color:#60F7C3"/>
			<stop  offset="0.5129" style="stop-color:#2D94E3"/>
			<stop  offset="0.8439" style="stop-color:#0D55F7"/>
			<stop  offset="1" style="stop-color:#003DFF"/>
		</linearGradient>
		<path class="st6" d="M988.5,848.9H758c-18.2,0-32.9-14.7-32.9-32.9c0-18.2,14.7-32.9,32.9-32.9H904l-51-46.9
			c-6.5-6-10.3-14.3-10.6-23.2c-0.3-8.8,3-17.4,9.1-23.8l62.6-65.5H758c-18.2,0-32.9-14.7-32.9-32.9s14.7-32.9,32.9-32.9h233
			c13.2,0,25.1,7.9,30.3,20c5.2,12.1,2.6,26.2-6.5,35.7l-92.6,96.9l88.5,81.3c10,9.2,15.3,23.5,10.4,36.2
			C1016.2,840.6,1002,848.9,988.5,848.9z"/>
	</g>
</g>
</svg>
