<?xml version="1.0" encoding="utf-8"?>
<!-- Generator: Adobe Illustrator 23.0.3, SVG Export Plug-In . SVG Version: 6.00 Build 0)  -->
<svg version="1.1" id="Слой_1" xmlns="http://www.w3.org/2000/svg" xmlns:xlink="http://www.w3.org/1999/xlink" x="0px" y="0px"
	 viewBox="0 0 1024 1024" style="enable-background:new 0 0 1024 1024;" xml:space="preserve">
<style type="text/css">
	.st0{fill:url(#SVGID_1_);}
	.st1{fill:url(#SVGID_2_);}
	.st2{fill:url(#SVGID_3_);}
	.st3{fill:url(#SVGID_4_);}
</style>
<g>
	<g>
		<linearGradient id="SVGID_1_" gradientUnits="userSpaceOnUse" x1="3.0919" y1="930.1032" x2="518.6" y2="280.9449">
			<stop  offset="0" style="stop-color:#64FFC0"/>
			<stop  offset="3.719538e-02" style="stop-color:#60F7C3"/>
			<stop  offset="0.5129" style="stop-color:#2D94E3"/>
			<stop  offset="0.8439" style="stop-color:#0D55F7"/>
			<stop  offset="1" style="stop-color:#003DFF"/>
		</linearGradient>
		<path class="st0" d="M433.1,1001.3H233.9C106,1001.3,2,897.3,2,769.4V258.6C2,130.7,106,26.7,233.9,26.7h199.2
			c127.9,0,231.9,104,231.9,231.9v510.8C665.1,897.3,561,1001.3,433.1,1001.3z M233.9,126.4c-72.9,0-132.2,59.3-132.2,132.2v510.8
			c0,72.9,59.3,132.2,132.2,132.2h199.2c72.9,0,132.2-59.3,132.2-132.2V258.6c0-72.9-59.3-132.2-132.2-132.2H233.9z"/>
	</g>
	<g>
		<linearGradient id="SVGID_2_" gradientUnits="userSpaceOnUse" x1="199.5259" y1="1086.0948" x2="715.034" y2="436.9366">
			<stop  offset="0" style="stop-color:#64FFC0"/>
			<stop  offset="3.719538e-02" style="stop-color:#60F7C3"/>
			<stop  offset="0.5129" style="stop-color:#2D94E3"/>
			<stop  offset="0.8439" style="stop-color:#0D55F7"/>
			<stop  offset="1" style="stop-color:#003DFF"/>
		</linearGradient>
		<path class="st1" d="M974.1,563.9H333.5c-27.5,0-49.9-22.3-49.9-49.9s22.3-49.9,49.9-49.9h640.6c27.5,0,49.9,22.3,49.9,49.9
			S1001.7,563.9,974.1,563.9z"/>
	</g>
	<g>
		<linearGradient id="SVGID_3_" gradientUnits="userSpaceOnUse" x1="287.7054" y1="1156.1198" x2="803.2134" y2="506.9615">
			<stop  offset="0" style="stop-color:#64FFC0"/>
			<stop  offset="3.719538e-02" style="stop-color:#60F7C3"/>
			<stop  offset="0.5129" style="stop-color:#2D94E3"/>
			<stop  offset="0.8439" style="stop-color:#0D55F7"/>
			<stop  offset="1" style="stop-color:#003DFF"/>
		</linearGradient>
		<path class="st2" d="M971.1,559.5c-12.8,0-25.5-4.9-35.3-14.6L746.3,355.4c-19.5-19.5-19.5-51,0-70.5c19.5-19.5,51-19.5,70.5,0
			l189.5,189.5c19.5,19.5,19.5,51,0,70.5C996.6,554.7,983.8,559.5,971.1,559.5z"/>
	</g>
	<g>
		<linearGradient id="SVGID_4_" gradientUnits="userSpaceOnUse" x1="383.3147" y1="1232.0448" x2="898.8228" y2="582.8865">
			<stop  offset="0" style="stop-color:#64FFC0"/>
			<stop  offset="3.719538e-02" style="stop-color:#60F7C3"/>
			<stop  offset="0.5129" style="stop-color:#2D94E3"/>
			<stop  offset="0.8439" style="stop-color:#0D55F7"/>
			<stop  offset="1" style="stop-color:#003DFF"/>
		</linearGradient>
		<path class="st3" d="M784,752.7c-12.8,0-25.5-4.9-35.3-14.6c-19.5-19.5-19.5-51,0-70.5l189.5-189.5c19.5-19.5,51-19.5,70.5,0
			c19.5,19.5,19.5,51,0,70.5L819.3,738.1C809.5,747.9,796.8,752.7,784,752.7z"/>
	</g>
</g>
</svg>
