<?xml version="1.0" encoding="utf-8"?>
<!-- Generator: Adobe Illustrator 23.0.3, SVG Export Plug-In . SVG Version: 6.00 Build 0)  -->
<svg version="1.1" id="Слой_1" xmlns="http://www.w3.org/2000/svg" xmlns:xlink="http://www.w3.org/1999/xlink" x="0px" y="0px"
	 viewBox="0 0 128 128" style="enable-background:new 0 0 128 128;" xml:space="preserve">
<style type="text/css">
	.st0{fill:url(#SVGID_1_);}
	.st1{fill:url(#SVGID_2_);}
	.st2{fill:url(#SVGID_3_);}
	.st3{fill:url(#SVGID_4_);}
	.st4{fill:url(#SVGID_5_);}
</style>
<g>
	<linearGradient id="SVGID_1_" gradientUnits="userSpaceOnUse" x1="33.7369" y1="157.4936" x2="139.116" y2="35.4406">
		<stop  offset="0" style="stop-color:#64FFC0"/>
		<stop  offset="3.719538e-02" style="stop-color:#60F7C3"/>
		<stop  offset="0.5129" style="stop-color:#2D94E3"/>
		<stop  offset="0.8439" style="stop-color:#0D55F7"/>
		<stop  offset="1" style="stop-color:#003DFF"/>
	</linearGradient>
	<path class="st0" d="M71.6,58.8c0,0,12.1-13.3,30.8,0c15.7,11.1,22.2,32.1,21.8,43.2c-0.5,12.3-7.8,10.2-7.8,10.2l-36.8,0.1
		C79.6,112.3,97.9,84.1,71.6,58.8z"/>
	<g>
		<linearGradient id="SVGID_2_" gradientUnits="userSpaceOnUse" x1="0.2199" y1="128.5555" x2="105.599" y2="6.5025">
			<stop  offset="0" style="stop-color:#64FFC0"/>
			<stop  offset="3.719538e-02" style="stop-color:#60F7C3"/>
			<stop  offset="0.5129" style="stop-color:#2D94E3"/>
			<stop  offset="0.8439" style="stop-color:#0D55F7"/>
			<stop  offset="1" style="stop-color:#003DFF"/>
		</linearGradient>
		<circle class="st1" cx="85.3" cy="30" r="17.7"/>
		<linearGradient id="SVGID_3_" gradientUnits="userSpaceOnUse" x1="5.5445" y1="115.6734" x2="101.3523" y2="4.7062">
			<stop  offset="0" style="stop-color:#64FFC0"/>
			<stop  offset="3.719538e-02" style="stop-color:#60F7C3"/>
			<stop  offset="0.5129" style="stop-color:#2D94E3"/>
			<stop  offset="0.8439" style="stop-color:#0D55F7"/>
			<stop  offset="1" style="stop-color:#003DFF"/>
		</linearGradient>
		<path class="st2" d="M96.6,21.8L84.5,17c-2.2-0.9-3.3-3.3-2.4-5.5l0,0c0.9-2.2,3.3-3.3,5.5-2.4l12.1,4.8c2.2,0.9,3.3,3.3,2.4,5.5
			l0,0C101.3,21.6,98.8,22.7,96.6,21.8z"/>
		<linearGradient id="SVGID_4_" gradientUnits="userSpaceOnUse" x1="-3.9021" y1="124.9966" x2="101.477" y2="2.9436">
			<stop  offset="0" style="stop-color:#64FFC0"/>
			<stop  offset="3.719538e-02" style="stop-color:#60F7C3"/>
			<stop  offset="0.5129" style="stop-color:#2D94E3"/>
			<stop  offset="0.8439" style="stop-color:#0D55F7"/>
			<stop  offset="1" style="stop-color:#003DFF"/>
		</linearGradient>
		<path class="st3" d="M72.1,0.9l16.2,15.4c0.8,0.8,3.2,1.7,5.4,2l20.8,3.4c2.2,0.4,3.4,0,2.6-0.7L100.9,5.6c-0.8-0.8-3.2-1.7-5.4-2
			L74.7,0.2C72.4-0.2,71.3,0.1,72.1,0.9z"/>
	</g>
	<linearGradient id="SVGID_5_" gradientUnits="userSpaceOnUse" x1="5.3746" y1="133.0059" x2="110.7536" y2="10.9529">
		<stop  offset="0" style="stop-color:#64FFC0"/>
		<stop  offset="3.719538e-02" style="stop-color:#60F7C3"/>
		<stop  offset="0.5129" style="stop-color:#2D94E3"/>
		<stop  offset="0.8439" style="stop-color:#0D55F7"/>
		<stop  offset="1" style="stop-color:#003DFF"/>
	</linearGradient>
	<circle class="st4" cx="41.8" cy="90.8" r="37.2"/>
</g>
</svg>
