<?xml version="1.0" encoding="utf-8"?>
<!-- Generator: Adobe Illustrator 23.0.3, SVG Export Plug-In . SVG Version: 6.00 Build 0)  -->
<svg version="1.1" id="Слой_1" xmlns="http://www.w3.org/2000/svg" xmlns:xlink="http://www.w3.org/1999/xlink" x="0px" y="0px"
	 viewBox="0 0 8192 2048" style="enable-background:new 0 0 8192 2048;" xml:space="preserve">
<style type="text/css">
	.st0{fill:none;stroke:#64FFC0;stroke-width:40;stroke-linecap:round;stroke-linejoin:round;stroke-miterlimit:10;}
	.st1{fill:none;stroke:#64FFC0;stroke-width:41;stroke-linecap:round;stroke-linejoin:round;stroke-miterlimit:10;}
	.st2{fill:url(#SVGID_1_);}
	.st3{fill:url(#SVGID_2_);}
	.st4{fill:url(#SVGID_3_);}
	.st5{fill:url(#SVGID_4_);}
	.st6{fill:#1A5FA3;}
	.st7{fill:url(#SVGID_5_);}
	.st8{fill:url(#SVGID_6_);}
	.st9{fill:url(#SVGID_7_);}
	.st10{fill:url(#SVGID_8_);}
	.st11{fill:url(#SVGID_9_);}
	.st12{fill:url(#SVGID_10_);}
	.st13{fill:url(#SVGID_11_);}
	.st14{fill:url(#SVGID_12_);}
	.st15{fill:url(#SVGID_13_);}
	.st16{fill:url(#SVGID_14_);}
	.st17{fill:url(#SVGID_15_);}
	.st18{fill:url(#SVGID_16_);}
	.st19{fill:url(#SVGID_17_);}
	.st20{fill:url(#SVGID_18_);}
	.st21{fill:url(#SVGID_19_);}
	.st22{fill:url(#SVGID_20_);}
	.st23{fill:url(#SVGID_21_);}
	.st24{fill:url(#SVGID_22_);}
	.st25{fill:url(#SVGID_23_);}
	.st26{fill:url(#SVGID_24_);}
	.st27{fill:url(#SVGID_25_);}
	.st28{fill:url(#SVGID_26_);}
	.st29{fill:url(#SVGID_27_);}
	.st30{fill:url(#SVGID_28_);}
	.st31{fill:url(#SVGID_29_);}
	.st32{fill:url(#SVGID_30_);}
	.st33{fill:url(#SVGID_31_);}
</style>
<g>
	<g>
		<path class="st0" d="M1100.7,1651.8c0,0-418.6-340.6-961.8,0"/>
		<path class="st1" d="M371.8,915.1c0,0,223,213.3,492.5,0"/>
		<path class="st1" d="M862.3,1870.6c0,0-223-213.3-492.5,0"/>
		<path class="st0" d="M486.1,992.3c0,0-305.4,342.7,0,787.5"/>
		<path class="st0" d="M726.5,1778.3c0,0,253.1-341.1,0-783.7"/>
		<path class="st0" d="M137,1132c0,0,418.6,340.6,961.8,0"/>
		
			<radialGradient id="SVGID_1_" cx="-1583.6057" cy="366.7427" r="3241.8171" gradientTransform="matrix(0.8 0 0 0.8 1451.7999 1614.5795)" gradientUnits="userSpaceOnUse">
			<stop  offset="0" style="stop-color:#64FFC0"/>
			<stop  offset="3.719538e-02" style="stop-color:#60F7C3"/>
			<stop  offset="0.5129" style="stop-color:#2D94E3"/>
			<stop  offset="0.8439" style="stop-color:#0D55F7"/>
			<stop  offset="1" style="stop-color:#003DFF"/>
		</radialGradient>
		<path class="st2" d="M617,777.4C278.1,777.4,3.4,1052.1,3.4,1391s274.7,613.6,613.6,613.6s613.6-274.7,613.6-613.6
			S955.9,777.4,617,777.4z M616.1,1907.8c-285.9,0-517.7-231.8-517.7-517.7s231.8-517.7,517.7-517.7s517.7,231.8,517.7,517.7
			S902,1907.8,616.1,1907.8z"/>
		
			<radialGradient id="SVGID_2_" cx="-1583.6057" cy="366.7427" r="3241.8171" gradientTransform="matrix(0.8 0 0 0.8 1451.7999 1614.5795)" gradientUnits="userSpaceOnUse">
			<stop  offset="0" style="stop-color:#64FFC0"/>
			<stop  offset="3.719538e-02" style="stop-color:#60F7C3"/>
			<stop  offset="0.5129" style="stop-color:#2D94E3"/>
			<stop  offset="0.8439" style="stop-color:#0D55F7"/>
			<stop  offset="1" style="stop-color:#003DFF"/>
		</radialGradient>
		<path class="st3" d="M1062,906.9c0,0,184.3-201.3,467.9,0c238.6,169.3,337.2,486.9,330.5,655.7c-7.4,187.5-119,155-119,155
			l-558.3,1.9C1183,1719.7,1461.7,1291.2,1062,906.9z"/>
		
			<radialGradient id="SVGID_3_" cx="-1609.2504" cy="418.6509" r="3312.7981" gradientTransform="matrix(0.8 0 0 0.8 1451.7999 1614.5795)" gradientUnits="userSpaceOnUse">
			<stop  offset="0" style="stop-color:#64FFC0"/>
			<stop  offset="3.719538e-02" style="stop-color:#60F7C3"/>
			<stop  offset="0.5129" style="stop-color:#2D94E3"/>
			<stop  offset="0.8439" style="stop-color:#0D55F7"/>
			<stop  offset="1" style="stop-color:#003DFF"/>
		</radialGradient>
		<path class="st4" d="M1493.9,407.1l-289.2-113.6c-4.4-1.7-6.5-6.7-4.8-11l41.3-105.1c1.7-4.4,6.7-6.5,11-4.8l289.2,113.6
			c4.4,1.7,6.5,6.7,4.8,11l-41.2,105C1503.3,406.6,1498.3,408.8,1493.9,407.1z"/>
		<g>
			<g>
				
					<radialGradient id="SVGID_4_" cx="-1583.6057" cy="366.7427" r="3241.8171" gradientTransform="matrix(0.8 0 0 0.8 1451.7999 1614.5795)" gradientUnits="userSpaceOnUse">
					<stop  offset="0" style="stop-color:#64FFC0"/>
					<stop  offset="3.719538e-02" style="stop-color:#60F7C3"/>
					<stop  offset="0.5129" style="stop-color:#2D94E3"/>
					<stop  offset="0.8439" style="stop-color:#0D55F7"/>
					<stop  offset="1" style="stop-color:#003DFF"/>
				</radialGradient>
				<path class="st5" d="M1069.1,68.5L1314.4,303c12,11.5,49.1,25.3,82.8,30.8l315.6,52c33.7,5.5,51.3,0.8,39.2-10.8l-245.3-234.5
					c-12-11.5-49.1-25.3-82.8-30.8l-315.6-52C1074.7,52.2,1057.1,57,1069.1,68.5z"/>
			</g>
		</g>
		<g>
			<g>
				<path class="st6" d="M1643.5,477.8c-10.7,0-19.8-8.1-20.6-19c-8.8-101.6-64.4-179-65-179.8c-6.8-9.3-4.8-22.2,4.5-29
					s22.2-4.8,28.9,4.5c2.6,3.5,63,87.2,72.8,200.7c1,11.5-7.4,21.5-18.9,22.4C1644.8,477.8,1644.2,477.8,1643.5,477.8z"/>
			</g>
		</g>
		<g>
			<g>
				<path class="st6" d="M1713.5,576.5c-3.3,0-6.7-0.8-9.8-2.5c-62-33.4-80.2-107.4-81-110.5c-2.7-11.2,4.3-22.3,15.4-24.9
					c11.2-2.7,22.3,4.2,24.9,15.4c0.3,1.1,15,59.3,60.2,83.6c10.1,5.4,13.8,18,8.4,28.1C1728,572.4,1720.8,576.5,1713.5,576.5z"/>
			</g>
		</g>
		<g>
			<g>
				<path class="st6" d="M1664.8,658.6c-7.3,0-14.3-3.8-18.1-10.6c-40.5-72.5-27.8-151.9-27.2-155.2c1.9-11.3,12.6-18.9,23.9-17
					s18.9,12.6,17.1,23.9c-0.2,1.1-10.6,68.9,22.5,128.2c5.6,10,2,22.6-8,28.3C1671.7,657.7,1668.2,658.6,1664.8,658.6z"/>
			</g>
		</g>
		<g>
			<g>
				<circle class="st6" cx="1642.4" cy="479.4" r="41"/>
			</g>
		</g>
	</g>
	<g>
		<g>
			
				<linearGradient id="SVGID_5_" gradientUnits="userSpaceOnUse" x1="1018.5425" y1="-875.5981" x2="6665.2539" y2="-2443.3911" gradientTransform="matrix(0.8 0 0 0.8 1451.7999 1614.5795)">
				<stop  offset="0" style="stop-color:#64FFC0"/>
				<stop  offset="3.719538e-02" style="stop-color:#60F7C3"/>
				<stop  offset="0.5129" style="stop-color:#2D94E3"/>
				<stop  offset="0.8439" style="stop-color:#0D55F7"/>
				<stop  offset="1" style="stop-color:#003DFF"/>
			</linearGradient>
			<path class="st7" d="M2230,222.5h1147.3v195.4h-114.6v693.5h114.6v196.1h-464.5v-196.1H3026V417.9h-445.9v693.5h114.6v196.1
				h-464.5v-196.1h112.4V417.9h-112.4L2230,222.5L2230,222.5z"/>
			
				<linearGradient id="SVGID_6_" gradientUnits="userSpaceOnUse" x1="1127.2889" y1="-483.9261" x2="6774" y2="-2051.719" gradientTransform="matrix(0.8 0 0 0.8 1451.7999 1614.5795)">
				<stop  offset="0" style="stop-color:#64FFC0"/>
				<stop  offset="3.719538e-02" style="stop-color:#60F7C3"/>
				<stop  offset="0.5129" style="stop-color:#2D94E3"/>
				<stop  offset="0.8439" style="stop-color:#0D55F7"/>
				<stop  offset="1" style="stop-color:#003DFF"/>
			</linearGradient>
			<path class="st8" d="M4019.4,1327c-49.2,0-96.1-6.7-141-20s-86.8-32.2-125.6-56.5c-38.9-24.3-74.2-53.6-106-87.6
				c-31.7-34.1-58.8-72.1-81.2-113.8c-22.4-41.7-39.8-86.5-52.2-134.2s-18.6-97.6-18.6-149.6s6.2-102,18.6-150
				c12.4-47.9,29.8-92.8,52.2-134.6c22.4-41.7,49.5-79.7,81.2-113.8s67-63.4,106-87.6c38.9-24.3,80.8-43.1,125.6-56.5
				c44.9-13.4,91.8-20,141-20s96.2,6.7,141.4,20c45.1,13.4,87.1,32.2,126,56.5c38.9,24.3,74.2,53.6,106,87.6
				c31.7,34.1,58.9,72.1,81.6,113.8c22.6,41.7,40.2,86.6,52.6,134.6c12.4,47.9,18.6,97.9,18.6,150c0,51.5-6.2,101.3-18.6,149.2
				s-30,92.8-52.6,134.6c-22.6,41.7-49.8,79.7-81.6,113.8c-31.7,34.1-67,63.4-106,87.6c-38.9,24.3-80.9,43.1-126,56.5
				C4115.7,1320.3,4068.6,1327,4019.4,1327z M4019.4,1102.2c41.5,0,79.5-9,114.2-26.8c34.6-17.9,64.3-42.2,89.1-73
				c24.8-30.7,44-66.5,57.7-107.4c13.6-40.8,20.4-84.1,20.4-129.9c0-46.3-7-89.9-20.7-131c-13.8-41-33.3-76.9-58.3-107.7
				s-54.8-55.1-89.1-73c-34.4-17.9-72.1-26.8-113.1-26.8s-78.8,9-113.1,26.8c-34.4,17.9-64,42.2-88.8,73
				c-24.8,30.7-44.3,66.7-58.3,107.7c-14.1,41-21.1,84.7-21.1,131c0,45.8,7.1,89.1,21.1,129.9c14,40.8,33.5,76.6,58.3,107.4
				c24.8,30.7,54.4,55.1,88.8,73C3940.8,1093.3,3978.4,1102.2,4019.4,1102.2z"/>
			
				<linearGradient id="SVGID_7_" gradientUnits="userSpaceOnUse" x1="1238.8125" y1="-82.2516" x2="6885.5244" y2="-1650.0444" gradientTransform="matrix(0.8 0 0 0.8 1451.7999 1614.5795)">
				<stop  offset="0" style="stop-color:#64FFC0"/>
				<stop  offset="3.719538e-02" style="stop-color:#60F7C3"/>
				<stop  offset="0.5129" style="stop-color:#2D94E3"/>
				<stop  offset="0.8439" style="stop-color:#0D55F7"/>
				<stop  offset="1" style="stop-color:#003DFF"/>
			</linearGradient>
			<path class="st9" d="M4668.7,222.5h438.7v196.8h-88v550.4L5509,221.1h353.6v198.3h-119.5v692.1h119.5v196.1h-446.7v-196.1h92.3
				V571.1l-489.6,736.5h-350v-196.1H4781V419.4h-112.4V222.5H4668.7z"/>
			
				<linearGradient id="SVGID_8_" gradientUnits="userSpaceOnUse" x1="1349.6766" y1="317.0466" x2="6996.3887" y2="-1250.7463" gradientTransform="matrix(0.8 0 0 0.8 1451.7999 1614.5795)">
				<stop  offset="0" style="stop-color:#64FFC0"/>
				<stop  offset="3.719538e-02" style="stop-color:#60F7C3"/>
				<stop  offset="0.5129" style="stop-color:#2D94E3"/>
				<stop  offset="0.8439" style="stop-color:#0D55F7"/>
				<stop  offset="1" style="stop-color:#003DFF"/>
			</linearGradient>
			<path class="st10" d="M6724.2,552.5c-26.7-38.2-50.8-65.2-72.3-81.2c-21.5-15.9-44.6-27.4-69.4-34.4c-24.8-6.9-50.8-10.4-78-10.4
				c-40.1,0-77.3,9-111.7,26.8c-34.4,17.9-64.1,42.2-89.1,73c-25,30.7-44.8,66.5-59.1,107.4c-14.3,40.8-21.5,84.1-21.5,129.9
				c0,46.3,7.1,89.8,21.1,130.6s33.5,76.5,58.3,107s54.4,54.8,88.8,72.6c34.4,17.9,72.1,26.8,113.1,26.8c28.6,0,55.4-4.7,80.2-13.9
				s47.3-21.6,67.7-36.8c20.2-15.3,38.1-32.8,53.4-52.6s27.2-40.5,35.8-62l230.4,64.4c-14.8,46.8-36.5,90.1-65.1,129.9
				s-63.1,74.4-103.4,103.4c-40.3,29.1-85.6,52-136,68.7c-50.3,16.7-104.6,25-162.9,25c-49.2,0-96.1-6.7-141-20
				s-86.8-32.2-125.6-56.5c-38.9-24.3-74.2-53.6-106-88s-58.8-72.4-81.2-114.2c-22.4-41.7-39.8-86.6-52.2-134.6
				c-12.4-47.9-18.6-97.9-18.6-150c0-77.8,13.6-150.6,40.8-218.7c27.2-68,64.4-127.4,111.7-178.2c47.3-50.8,102.7-90.9,166.4-120.3
				c63.7-29.3,132.3-44,205.8-44c58.7,0,108.1,7.3,148.2,21.9c40.1,14.6,84.2,43.3,132.4,86.2h160.3v241.9h-221.3L6724.2,552.5
				L6724.2,552.5z"/>
			
				<linearGradient id="SVGID_9_" gradientUnits="userSpaceOnUse" x1="1452.6167" y1="687.8049" x2="7099.3286" y2="-879.9882" gradientTransform="matrix(0.8 0 0 0.8 1451.7999 1614.5795)">
				<stop  offset="0" style="stop-color:#64FFC0"/>
				<stop  offset="3.719538e-02" style="stop-color:#60F7C3"/>
				<stop  offset="0.5129" style="stop-color:#2D94E3"/>
				<stop  offset="0.8439" style="stop-color:#0D55F7"/>
				<stop  offset="1" style="stop-color:#003DFF"/>
			</linearGradient>
			<path class="st11" d="M7125.8,222.5h464.5v196.8h-114.6V735l347.1-302.8V222.5H8193v211.2h-80.9l-361.4,310.6l346.4,350.7h88
				v212.6h-360V1095l-349.3-349.3v365.7h114.6v196.1h-464.5v-196.1h112.4V419.3h-112.4L7125.8,222.5L7125.8,222.5z"/>
		</g>
		<g>
			
				<linearGradient id="SVGID_10_" gradientUnits="userSpaceOnUse" x1="1252.5635" y1="-32.7255" x2="6899.2749" y2="-1600.5182" gradientTransform="matrix(0.8 0 0 0.8 1451.7999 1614.5795)">
				<stop  offset="0" style="stop-color:#64FFC0"/>
				<stop  offset="3.719538e-02" style="stop-color:#60F7C3"/>
				<stop  offset="0.5129" style="stop-color:#2D94E3"/>
				<stop  offset="0.8439" style="stop-color:#0D55F7"/>
				<stop  offset="1" style="stop-color:#003DFF"/>
			</linearGradient>
			<path class="st12" d="M2412.8,1496.2c23.1,12.4,41.2,29.5,54.3,51.5s19.6,46.5,19.6,73.7c0,27.6-6.6,52.3-19.6,74.2
				c-13.1,22-31.2,39-54.3,51.5s-49.1,18.5-77.6,18.5c-24.7,0-47.1-3.9-67-11.6c-20-7.7-36.8-19.1-50.6-33.9l29.7-29.7
				c22.6,22.2,51.3,33.4,85.8,33.4c27.6,0,51.1-7.8,70.5-23.6c19.5-15.8,31.1-36.3,34.9-61.8h-141v-37.6h139.9
				c-4.6-24.3-16.4-44.1-35.5-59.1s-42.1-22.5-68.9-22.5c-34.3,0-62.9,11.4-85.8,33.9l-29.7-29.1c13.7-15.2,30.7-26.6,50.9-34.5
				c20.1-7.7,42.4-11.6,66.8-11.6C2363.9,1477.6,2389.7,1483.8,2412.8,1496.2z"/>
			
				<linearGradient id="SVGID_11_" gradientUnits="userSpaceOnUse" x1="1284.2916" y1="81.5491" x2="6931.0029" y2="-1486.2435" gradientTransform="matrix(0.8 0 0 0.8 1451.7999 1614.5795)">
				<stop  offset="0" style="stop-color:#64FFC0"/>
				<stop  offset="3.719538e-02" style="stop-color:#60F7C3"/>
				<stop  offset="0.5129" style="stop-color:#2D94E3"/>
				<stop  offset="0.8439" style="stop-color:#0D55F7"/>
				<stop  offset="1" style="stop-color:#003DFF"/>
			</linearGradient>
			<path class="st13" d="M2797.9,1480.9v280.9H2747v-236.4h-120.9l-3.2,62.5c-1.8,37.8-5.2,69.3-10,94.6
				c-5,25.3-13.1,45.5-24.3,60.7c-11.4,15.2-27,22.8-47.2,22.8c-9.2,0-19.6-1.6-31.3-4.8l3.2-43c4.6,1.1,8.8,1.6,12.7,1.6
				c14.1,0,24.7-6.2,31.8-18.5c7.1-12.4,11.6-27,13.7-44s4.1-41.1,5.8-72.6l4.8-103.9L2797.9,1480.9L2797.9,1480.9z"/>
			
				<linearGradient id="SVGID_12_" gradientUnits="userSpaceOnUse" x1="1313.7003" y1="187.4709" x2="6960.4121" y2="-1380.3218" gradientTransform="matrix(0.8 0 0 0.8 1451.7999 1614.5795)">
				<stop  offset="0" style="stop-color:#64FFC0"/>
				<stop  offset="3.719538e-02" style="stop-color:#60F7C3"/>
				<stop  offset="0.5129" style="stop-color:#2D94E3"/>
				<stop  offset="0.8439" style="stop-color:#0D55F7"/>
				<stop  offset="1" style="stop-color:#003DFF"/>
			</linearGradient>
			<path class="st14" d="M3149.3,1638.3h-228c3.2,24.7,14,44.6,32.6,59.7c18.5,15,41.6,22.5,69.2,22.5c33.6,0,60.6-11.3,81.1-33.9
				l28.1,32.8c-12.7,14.8-28.5,26.2-47.4,33.9c-18.9,7.7-40,11.6-63.4,11.6c-29.7,0-56-6.1-78.9-18.3c-23-12.2-40.8-29.2-53.3-51.2
				c-12.5-21.9-18.8-46.7-18.8-74.2c0-27.2,6.1-51.7,18.3-73.7c12.2-21.9,28.9-38.9,50.3-51.2c21.4-12.2,45.5-18.3,72.4-18.3
				c26.8,0,50.8,6.1,71.8,18.3s37.4,29.2,49.3,51.2c11.8,22,17.8,47,17.8,75.2C3150.4,1626.8,3150.1,1631.9,3149.3,1638.3z
				 M2950.3,1543.4c-16.4,14.8-26.1,34.3-28.9,58.3h180.2c-2.9-23.7-12.4-43.1-28.9-58c-16.4-15-36.8-22.5-61.2-22.5
				C2987.1,1521.1,2966.7,1528.5,2950.3,1543.4z"/>
			
				<linearGradient id="SVGID_13_" gradientUnits="userSpaceOnUse" x1="1344.342" y1="297.8327" x2="6991.0532" y2="-1269.9602" gradientTransform="matrix(0.8 0 0 0.8 1451.7999 1614.5795)">
				<stop  offset="0" style="stop-color:#64FFC0"/>
				<stop  offset="3.719538e-02" style="stop-color:#60F7C3"/>
				<stop  offset="0.5129" style="stop-color:#2D94E3"/>
				<stop  offset="0.8439" style="stop-color:#0D55F7"/>
				<stop  offset="1" style="stop-color:#003DFF"/>
			</linearGradient>
			<path class="st15" d="M3338.5,1643h-58.3v118.8h-50.9v-280.9h50.9v118.8h59.4l91.2-118.8h54.6L3378.8,1616l114,145.8h-59.9
				L3338.5,1643z"/>
			
				<linearGradient id="SVGID_14_" gradientUnits="userSpaceOnUse" x1="1363.1151" y1="365.4471" x2="7009.8262" y2="-1202.3456" gradientTransform="matrix(0.8 0 0 0.8 1451.7999 1614.5795)">
				<stop  offset="0" style="stop-color:#64FFC0"/>
				<stop  offset="3.719538e-02" style="stop-color:#60F7C3"/>
				<stop  offset="0.5129" style="stop-color:#2D94E3"/>
				<stop  offset="0.8439" style="stop-color:#0D55F7"/>
				<stop  offset="1" style="stop-color:#003DFF"/>
			</linearGradient>
			<path class="st16" d="M3750.9,1525.3h-102.8v236.4h-50.9v-236.4h-102.8v-44.5h256.5V1525.3z"/>
			
				<linearGradient id="SVGID_15_" gradientUnits="userSpaceOnUse" x1="1402.6621" y1="507.8833" x2="7049.373" y2="-1059.9097" gradientTransform="matrix(0.8 0 0 0.8 1451.7999 1614.5795)">
				<stop  offset="0" style="stop-color:#64FFC0"/>
				<stop  offset="3.719538e-02" style="stop-color:#60F7C3"/>
				<stop  offset="0.5129" style="stop-color:#2D94E3"/>
				<stop  offset="0.8439" style="stop-color:#0D55F7"/>
				<stop  offset="1" style="stop-color:#003DFF"/>
			</linearGradient>
			<path class="st17" d="M4025,1496.2c21.6,12,38.5,28.8,50.6,50.3c12.2,21.6,18.3,46.5,18.3,74.7c0,28.3-6.1,53.3-18.3,75
				c-12.2,21.8-29.1,38.6-50.6,50.6c-21.6,12-45.9,18-73.1,18c-20.1,0-38.6-3.9-55.4-11.6s-31-19.1-42.7-33.9v145.2h-50.9v-383.8
				h48.8v44.5c11.3-15.6,25.6-27.3,43-35.2c17.3-7.9,36.4-11.9,57.3-11.9C3979.1,1478.2,4003.4,1484.2,4025,1496.2z M3996.1,1708
				c14.3-8.3,25.6-20,33.9-34.9c8.3-15,12.4-32.3,12.4-51.6c0-19.5-4.2-36.7-12.4-51.6c-8.3-15-19.6-26.5-33.9-34.7
				c-14.3-8.1-30.5-12.2-48.5-12.2c-17.7,0-33.7,4.2-47.9,12.4c-14.3,8.3-25.6,19.9-33.9,34.7c-8.3,14.8-12.4,32-12.4,51.5
				s4.1,36.7,12.2,51.6c8.1,15,19.5,26.7,33.9,34.9c14.5,8.3,30.5,12.4,48.2,12.4C3965.6,1720.4,3981.7,1716.3,3996.1,1708z"/>
			
				<linearGradient id="SVGID_16_" gradientUnits="userSpaceOnUse" x1="1427.2751" y1="596.5331" x2="7073.9868" y2="-971.2595" gradientTransform="matrix(0.8 0 0 0.8 1451.7999 1614.5795)">
				<stop  offset="0" style="stop-color:#64FFC0"/>
				<stop  offset="3.719538e-02" style="stop-color:#60F7C3"/>
				<stop  offset="0.5129" style="stop-color:#2D94E3"/>
				<stop  offset="0.8439" style="stop-color:#0D55F7"/>
				<stop  offset="1" style="stop-color:#003DFF"/>
			</linearGradient>
			<path class="st18" d="M4212.6,1746.4c-22.2-12.4-39.7-29.4-52.2-51.2c-12.5-21.8-18.8-46.4-18.8-74s6.3-52.2,18.8-74
				s30-38.7,52.2-50.9c22.2-12.2,47.3-18.3,75.2-18.3c27.9,0,52.9,6.1,75,18.3c22.1,12.2,39.4,29.1,51.9,50.9s18.8,46.4,18.8,74
				s-6.3,52.2-18.8,74s-29.9,38.8-51.9,51.2c-22.1,12.4-47.1,18.5-75,18.5C4259.9,1764.9,4234.9,1758.7,4212.6,1746.4z M4336.4,1708
				c14.3-8.3,25.5-20,33.7-34.9c8.1-15,12.2-32.3,12.2-51.6c0-19.5-4.1-36.7-12.2-51.6s-19.4-26.5-33.7-34.7
				c-14.3-8.1-30.5-12.2-48.5-12.2s-34.2,4.1-48.5,12.2s-25.6,19.7-33.9,34.7s-12.4,32.3-12.4,51.6c0,19.5,4.1,36.7,12.4,51.6
				c8.3,15,19.6,26.7,33.9,34.9c14.3,8.3,30.5,12.4,48.5,12.4S4322.1,1716.3,4336.4,1708z"/>
			
				<linearGradient id="SVGID_17_" gradientUnits="userSpaceOnUse" x1="1458.6046" y1="709.3713" x2="7105.3164" y2="-858.4213" gradientTransform="matrix(0.8 0 0 0.8 1451.7999 1614.5795)">
				<stop  offset="0" style="stop-color:#64FFC0"/>
				<stop  offset="3.719538e-02" style="stop-color:#60F7C3"/>
				<stop  offset="0.5129" style="stop-color:#2D94E3"/>
				<stop  offset="0.8439" style="stop-color:#0D55F7"/>
				<stop  offset="1" style="stop-color:#003DFF"/>
			</linearGradient>
			<path class="st19" d="M4507.3,1480.9h50.9v119.2h160.1v-119.2h50.9v280.9h-50.9v-117.7h-160.1v117.7h-50.9V1480.9z"/>
			
				<linearGradient id="SVGID_18_" gradientUnits="userSpaceOnUse" x1="1490.9008" y1="825.6926" x2="7137.6123" y2="-742.1" gradientTransform="matrix(0.8 0 0 0.8 1451.7999 1614.5795)">
				<stop  offset="0" style="stop-color:#64FFC0"/>
				<stop  offset="3.719538e-02" style="stop-color:#60F7C3"/>
				<stop  offset="0.5129" style="stop-color:#2D94E3"/>
				<stop  offset="0.8439" style="stop-color:#0D55F7"/>
				<stop  offset="1" style="stop-color:#003DFF"/>
			</linearGradient>
			<path class="st20" d="M4868.3,1480.9h50.9v119.2h160.1v-119.2h50.9v280.9h-50.9v-117.7h-160.1v117.7h-50.9V1480.9z"/>
			
				<linearGradient id="SVGID_19_" gradientUnits="userSpaceOnUse" x1="1526.1833" y1="952.7697" x2="7172.894" y2="-615.0229" gradientTransform="matrix(0.8 0 0 0.8 1451.7999 1614.5795)">
				<stop  offset="0" style="stop-color:#64FFC0"/>
				<stop  offset="3.719538e-02" style="stop-color:#60F7C3"/>
				<stop  offset="0.5129" style="stop-color:#2D94E3"/>
				<stop  offset="0.8439" style="stop-color:#0D55F7"/>
				<stop  offset="1" style="stop-color:#003DFF"/>
			</linearGradient>
			<path class="st21" d="M5436.9,1600.7c18.7,15.9,28.1,38.4,28.1,67.3c0,30.4-10.1,53.8-30.5,70.3c-20.3,16.4-49.4,24.4-87.2,24.2
				l-118.2-0.6V1481h50.9v94.9l75.8,0.6C5391.2,1576.6,5418.2,1584.7,5436.9,1600.7z M5395.9,1709.8c11.8-9.5,17.8-23.7,17.8-42.4
				c0-18.3-5.8-31.8-17.5-40.3c-11.6-8.5-29.1-12.9-52.5-13.3l-63.6-1.1V1723l63.6,0.6C5366.7,1724,5384.1,1719.3,5395.9,1709.8z
				 M5506.9,1480.9h50.9v280.9h-50.9V1480.9z"/>
			
				<linearGradient id="SVGID_20_" gradientUnits="userSpaceOnUse" x1="1546.2739" y1="1025.1294" x2="7192.9854" y2="-542.6633" gradientTransform="matrix(0.8 0 0 0.8 1451.7999 1614.5795)">
				<stop  offset="0" style="stop-color:#64FFC0"/>
				<stop  offset="3.719538e-02" style="stop-color:#60F7C3"/>
				<stop  offset="0.5129" style="stop-color:#2D94E3"/>
				<stop  offset="0.8439" style="stop-color:#0D55F7"/>
				<stop  offset="1" style="stop-color:#003DFF"/>
			</linearGradient>
			<path class="st22" d="M5657,1480.9h50.9v204.6l172.3-204.6h46.1v280.9h-50.9v-204.6l-171.7,204.6H5657V1480.9z M5727.4,1425.5
				c-14.5-12.5-22-30.6-22.2-54.3h34.5c0.4,13.1,4.9,23.6,13.6,31.5s20.2,11.9,34.7,11.9s26.2-4,34.9-11.9
				c8.8-7.9,13.5-18.4,13.7-31.5h35.5c-0.4,23.7-7.9,41.8-22.8,54.3c-14.8,12.5-35.1,18.8-61,18.8
				C5762.3,1444.3,5741.9,1438,5727.4,1425.5z"/>
			
				<linearGradient id="SVGID_21_" gradientUnits="userSpaceOnUse" x1="1611.4644" y1="1259.9255" x2="7258.1763" y2="-307.8674" gradientTransform="matrix(0.8 0 0 0.8 1451.7999 1614.5795)">
				<stop  offset="0" style="stop-color:#64FFC0"/>
				<stop  offset="3.719538e-02" style="stop-color:#60F7C3"/>
				<stop  offset="0.5129" style="stop-color:#2D94E3"/>
				<stop  offset="0.8439" style="stop-color:#0D55F7"/>
				<stop  offset="1" style="stop-color:#003DFF"/>
			</linearGradient>
			<path class="st23" d="M6422.9,1643h-54.6v118.8h-50.9V1643h-54.6l-77.4,118.8H6125l96.5-145.2l-89.1-135.7h54l75.8,118.8h55.1
				V1481h50.9v118.8h55.1L6499,1481h54.6l-89.1,136.2l96.5,144.7h-60.4L6422.9,1643z"/>
			
				<linearGradient id="SVGID_22_" gradientUnits="userSpaceOnUse" x1="1650.5438" y1="1400.6781" x2="7297.2549" y2="-167.1146" gradientTransform="matrix(0.8 0 0 0.8 1451.7999 1614.5795)">
				<stop  offset="0" style="stop-color:#64FFC0"/>
				<stop  offset="3.719538e-02" style="stop-color:#60F7C3"/>
				<stop  offset="0.5129" style="stop-color:#2D94E3"/>
				<stop  offset="0.8439" style="stop-color:#0D55F7"/>
				<stop  offset="1" style="stop-color:#003DFF"/>
			</linearGradient>
			<path class="st24" d="M6852.2,1480.9l-136.2,309c-12,28.6-26.1,48.8-42.1,60.4c-16.1,11.6-35.4,17.5-58,17.5
				c-13.7,0-27.1-2.2-40-6.6s-23.6-10.9-32.1-19.4l21.8-38.2c14.5,13.7,31.3,20.7,50.3,20.7c12.4,0,22.7-3.2,31-9.8
				c8.3-6.6,15.8-17.8,22.5-33.7l9-19.6l-124-280.4h53l98,224.7l97-224.7L6852.2,1480.9L6852.2,1480.9z"/>
			
				<linearGradient id="SVGID_23_" gradientUnits="userSpaceOnUse" x1="1680.1056" y1="1507.1509" x2="7326.8164" y2="-60.6421" gradientTransform="matrix(0.8 0 0 0.8 1451.7999 1614.5795)">
				<stop  offset="0" style="stop-color:#64FFC0"/>
				<stop  offset="3.719538e-02" style="stop-color:#60F7C3"/>
				<stop  offset="0.5129" style="stop-color:#2D94E3"/>
				<stop  offset="0.8439" style="stop-color:#0D55F7"/>
				<stop  offset="1" style="stop-color:#003DFF"/>
			</linearGradient>
			<path class="st25" d="M7126.2,1496.2c21.6,12,38.5,28.8,50.6,50.3c12.2,21.6,18.3,46.5,18.3,74.7c0,28.3-6.1,53.3-18.3,75
				c-12.2,21.8-29.1,38.6-50.6,50.6c-21.6,12-45.9,18-73.1,18c-20.1,0-38.6-3.9-55.4-11.6s-31-19.1-42.7-33.9v145.2h-50.9v-383.8
				h48.8v44.5c11.3-15.6,25.6-27.3,43-35.2c17.3-7.9,36.4-11.9,57.3-11.9C7080.3,1478.2,7104.6,1484.2,7126.2,1496.2z M7097.3,1708
				c14.3-8.3,25.6-20,33.9-34.9c8.3-15,12.4-32.3,12.4-51.6c0-19.5-4.2-36.7-12.4-51.6c-8.3-15-19.6-26.5-33.9-34.7
				c-14.3-8.1-30.5-12.2-48.5-12.2c-17.7,0-33.7,4.2-48,12.4c-14.3,8.3-25.6,19.9-33.9,34.7c-8.3,14.8-12.4,32-12.4,51.5
				s4.1,36.7,12.2,51.6c8.1,15,19.5,26.7,33.9,34.9c14.5,8.3,30.5,12.4,48.2,12.4C7066.8,1720.4,7083,1716.3,7097.3,1708z"/>
			
				<linearGradient id="SVGID_24_" gradientUnits="userSpaceOnUse" x1="1705.6575" y1="1599.1809" x2="7352.3687" y2="31.3881" gradientTransform="matrix(0.8 0 0 0.8 1451.7999 1614.5795)">
				<stop  offset="0" style="stop-color:#64FFC0"/>
				<stop  offset="3.719538e-02" style="stop-color:#60F7C3"/>
				<stop  offset="0.5129" style="stop-color:#2D94E3"/>
				<stop  offset="0.8439" style="stop-color:#0D55F7"/>
				<stop  offset="1" style="stop-color:#003DFF"/>
			</linearGradient>
			<path class="st26" d="M7268.8,1480.9h50.9v119.2h160.1v-119.2h50.9v280.9h-50.9v-117.7h-160.1v117.7h-50.9V1480.9z"/>
			
				<linearGradient id="SVGID_25_" gradientUnits="userSpaceOnUse" x1="1738.7416" y1="1718.3397" x2="7385.4526" y2="150.5469" gradientTransform="matrix(0.8 0 0 0.8 1451.7999 1614.5795)">
				<stop  offset="0" style="stop-color:#64FFC0"/>
				<stop  offset="3.719538e-02" style="stop-color:#60F7C3"/>
				<stop  offset="0.5129" style="stop-color:#2D94E3"/>
				<stop  offset="0.8439" style="stop-color:#0D55F7"/>
				<stop  offset="1" style="stop-color:#003DFF"/>
			</linearGradient>
			<path class="st27" d="M7819.3,1506.8c20.7,19.1,31,47.5,31,85.3v169.6h-48.2v-37.1c-8.5,13.1-20.6,23.1-36.3,30
				c-15.8,6.9-34.4,10.3-55.9,10.3c-31.4,0-56.6-7.6-75.5-22.8c-18.9-15.2-28.4-35.1-28.4-59.9c0-24.7,9-44.6,27-59.7
				c18-15,46.7-22.5,85.8-22.5h80.6v-10c0-21.9-6.4-38.7-19.1-50.3c-12.7-11.6-31.4-17.5-56.2-17.5c-16.6,0-32.8,2.8-48.8,8.2
				c-15.9,5.4-29.3,12.8-40.3,22l-21.2-38.2c14.5-11.6,31.8-20.6,51.9-26.7c20.1-6.2,41.5-9.3,64.1-9.3
				C7768.8,1478.2,7798.6,1487.7,7819.3,1506.8z M7768.7,1712.7c14.1-8.7,24.3-20.9,30.7-36.8v-39.2h-78.5
				c-43.1,0-64.6,14.5-64.6,43.4c0,14.1,5.4,25.3,16.4,33.4s26.2,12.2,45.5,12.2C7737.7,1725.7,7754.5,1721.4,7768.7,1712.7z"/>
			
				<linearGradient id="SVGID_26_" gradientUnits="userSpaceOnUse" x1="1766.0739" y1="1816.7825" x2="7412.7852" y2="248.9895" gradientTransform="matrix(0.8 0 0 0.8 1451.7999 1614.5795)">
				<stop  offset="0" style="stop-color:#64FFC0"/>
				<stop  offset="3.719538e-02" style="stop-color:#60F7C3"/>
				<stop  offset="0.5129" style="stop-color:#2D94E3"/>
				<stop  offset="0.8439" style="stop-color:#0D55F7"/>
				<stop  offset="1" style="stop-color:#003DFF"/>
			</linearGradient>
			<path class="st28" d="M8183.1,1480.9v280.9h-50.9v-236.4h-120.9l-3.1,62.5c-1.8,37.8-5.2,69.3-10,94.6
				c-5,25.3-13.1,45.5-24.3,60.7c-11.3,15.2-27,22.8-47.2,22.8c-9.2,0-19.6-1.6-31.3-4.8l3.2-43c4.6,1.1,8.8,1.6,12.7,1.6
				c14.1,0,24.7-6.2,31.8-18.5c7.1-12.4,11.6-27,13.7-44s4-41.1,5.8-72.6l4.8-103.9L8183.1,1480.9L8183.1,1480.9z"/>
		</g>
	</g>
</g>
<g>
	<radialGradient id="SVGID_27_" cx="187.8632" cy="1908.9117" r="2596.906" gradientUnits="userSpaceOnUse">
		<stop  offset="0" style="stop-color:#64FFC0"/>
		<stop  offset="3.719538e-02" style="stop-color:#60F7C3"/>
		<stop  offset="0.5129" style="stop-color:#2D94E3"/>
		<stop  offset="0.8439" style="stop-color:#0D55F7"/>
		<stop  offset="1" style="stop-color:#003DFF"/>
	</radialGradient>
	<circle class="st29" cx="1274.8" cy="509.9" r="268.9"/>
	<g>
		<path class="st0" d="M1104.9,1652.4c0,0-419.2-341-963.1,0"/>
		<path class="st1" d="M375,914.7c0,0,223.3,213.5,493.1,0"/>
		<path class="st1" d="M866.1,1871.5c0,0-223.3-213.5-493.1,0"/>
		<path class="st0" d="M489.5,992c0,0-305.8,343.2,0,788.5"/>
		<path class="st0" d="M730.2,1779.1c0,0,253.4-341.6,0-784.8"/>
		<path class="st0" d="M139.9,1132c0,0,419.2,341,963.1,0"/>
		<radialGradient id="SVGID_28_" cx="187.8632" cy="1908.9117" r="2596.906" gradientUnits="userSpaceOnUse">
			<stop  offset="0" style="stop-color:#64FFC0"/>
			<stop  offset="3.719538e-02" style="stop-color:#60F7C3"/>
			<stop  offset="0.5129" style="stop-color:#2D94E3"/>
			<stop  offset="0.8439" style="stop-color:#0D55F7"/>
			<stop  offset="1" style="stop-color:#003DFF"/>
		</radialGradient>
		<path class="st30" d="M620.5,776.9c-339.3,0-614.4,275.1-614.4,614.4s275.1,614.4,614.4,614.4s614.4-275.1,614.4-614.4
			S959.9,776.9,620.5,776.9z M619.6,1908.7c-286.3,0-518.3-232.1-518.3-518.3S333.3,872,619.6,872s518.3,232.1,518.3,518.3
			S905.8,1908.7,619.6,1908.7z"/>
		<radialGradient id="SVGID_29_" cx="187.8632" cy="1908.9117" r="2596.906" gradientUnits="userSpaceOnUse">
			<stop  offset="0" style="stop-color:#64FFC0"/>
			<stop  offset="3.719538e-02" style="stop-color:#60F7C3"/>
			<stop  offset="0.5129" style="stop-color:#2D94E3"/>
			<stop  offset="0.8439" style="stop-color:#0D55F7"/>
			<stop  offset="1" style="stop-color:#003DFF"/>
		</radialGradient>
		<path class="st31" d="M1066.1,906.6c0,0,184.6-201.6,468.6,0c238.8,169.5,337.6,487.6,330.9,656.6
			c-7.5,187.7-119.2,155.3-119.2,155.3l-559,1.9C1187.3,1720.3,1466.3,1291.3,1066.1,906.6z"/>
		<radialGradient id="SVGID_30_" cx="168.1282" cy="1948.8577" r="2651.5286" gradientUnits="userSpaceOnUse">
			<stop  offset="0" style="stop-color:#64FFC0"/>
			<stop  offset="3.719538e-02" style="stop-color:#60F7C3"/>
			<stop  offset="0.5129" style="stop-color:#2D94E3"/>
			<stop  offset="0.8439" style="stop-color:#0D55F7"/>
			<stop  offset="1" style="stop-color:#003DFF"/>
		</radialGradient>
		<path class="st32" d="M1498.3,405.9l-288.8-113.5c-4.6-1.8-6.8-7-5-11.5l41.1-104.5c1.8-4.6,7-6.8,11.5-5l288.8,113.5
			c4.6,1.8,6.8,7,5,11.5l-41.1,104.5C1508,405.4,1502.8,407.7,1498.3,405.9z"/>
		<g>
			<g>
				<radialGradient id="SVGID_31_" cx="187.8632" cy="1908.9117" r="2596.906" gradientUnits="userSpaceOnUse">
					<stop  offset="0" style="stop-color:#64FFC0"/>
					<stop  offset="3.719538e-02" style="stop-color:#60F7C3"/>
					<stop  offset="0.5129" style="stop-color:#2D94E3"/>
					<stop  offset="0.8439" style="stop-color:#0D55F7"/>
					<stop  offset="1" style="stop-color:#003DFF"/>
				</radialGradient>
				<path class="st33" d="M1073.2,67l245.7,234.9c12,11.5,49.1,25.3,82.9,30.9l316.1,52.1c33.7,5.6,51.3,0.7,39.3-10.8l-245.7-234.9
					c-12-11.5-49.1-25.3-82.9-30.9l-316.1-52.1C1078.8,50.6,1061.2,55.4,1073.2,67z"/>
			</g>
		</g>
		<g>
			<g>
				<path class="st6" d="M1648.4,476.8c-10.7,0-19.7-8.2-20.7-19c-8.8-101.7-64.5-179.2-65.1-180c-6.8-9.3-4.7-22.3,4.5-29
					c9.2-6.8,22.2-4.8,29,4.5c2.6,3.5,63.1,87.3,72.9,200.9c1,11.4-7.5,21.5-18.9,22.5C1649.6,476.7,1649,476.8,1648.4,476.8z"/>
			</g>
		</g>
		<g>
			<g>
				<path class="st6" d="M1718.5,575.6c-3.3,0-6.7-0.8-9.8-2.5c-62.1-33.5-80.3-107.6-81-110.7c-2.6-11.2,4.3-22.4,15.4-25
					c11.1-2.6,22.3,4.3,25,15.4c0.3,1.1,15,59.3,60.3,83.7c10.1,5.4,13.9,18,8.4,28.1C1733,571.6,1725.9,575.6,1718.5,575.6z"/>
			</g>
		</g>
		<g>
			<g>
				<path class="st6" d="M1669.7,657.9c-7.3,0-14.4-3.8-18.2-10.7c-40.5-72.5-27.8-152.1-27.2-155.5c1.9-11.3,12.6-19,23.9-17.1
					c11.3,1.9,18.9,12.6,17.1,23.9c-0.2,1-10.6,69,22.5,128.4c5.6,10,2,22.7-8,28.3C1676.6,657,1673.2,657.9,1669.7,657.9z"/>
			</g>
		</g>
		<g>
			<g>
				<circle class="st6" cx="1647.3" cy="478.4" r="41.1"/>
			</g>
		</g>
	</g>
</g>
</svg>
