<?xml version="1.0" encoding="utf-8"?>
<!-- Generator: Adobe Illustrator 23.0.3, SVG Export Plug-In . SVG Version: 6.00 Build 0)  -->
<svg version="1.1" id="Слой_1" xmlns="http://www.w3.org/2000/svg" xmlns:xlink="http://www.w3.org/1999/xlink" x="0px" y="0px"
	 viewBox="0 0 1024 1024" style="enable-background:new 0 0 1024 1024;" xml:space="preserve">
<style type="text/css">
	.st0{fill:url(#SVGID_1_);}
	.st1{fill:url(#SVGID_2_);}
	.st2{fill:url(#SVGID_3_);}
	.st3{fill:url(#SVGID_4_);}
	.st4{fill:url(#SVGID_5_);}
	.st5{fill:url(#SVGID_6_);}
	.st6{fill:url(#SVGID_7_);}
	.st7{fill:url(#SVGID_8_);}
	.st8{fill:url(#SVGID_9_);}
	.st9{fill:url(#SVGID_10_);}
</style>
<g>
	<g>
		<linearGradient id="SVGID_1_" gradientUnits="userSpaceOnUse" x1="-95.852" y1="779.4691" x2="742.3487" y2="149.9769">
			<stop  offset="0" style="stop-color:#64FFC0"/>
			<stop  offset="3.719538e-02" style="stop-color:#60F7C3"/>
			<stop  offset="0.5129" style="stop-color:#2D94E3"/>
			<stop  offset="0.8439" style="stop-color:#0D55F7"/>
			<stop  offset="1" style="stop-color:#003DFF"/>
		</linearGradient>
		<path class="st0" d="M496,909.4H44.5c-23.9,0-43.4-19.5-43.4-43.4V143.1c0-23.9,19.5-43.4,43.4-43.4h282.2
			c117.3,0,212.7,95.4,212.7,212.7v553.6C539.5,889.9,520,909.4,496,909.4z M56,854.4h428.5V312.3c0-87-70.8-157.8-157.8-157.8H56
			V854.4z"/>
	</g>
	<g>
		<linearGradient id="SVGID_2_" gradientUnits="userSpaceOnUse" x1="99.2341" y1="1039.2361" x2="937.4348" y2="409.744">
			<stop  offset="0" style="stop-color:#64FFC0"/>
			<stop  offset="3.719538e-02" style="stop-color:#60F7C3"/>
			<stop  offset="0.5129" style="stop-color:#2D94E3"/>
			<stop  offset="0.8439" style="stop-color:#0D55F7"/>
			<stop  offset="1" style="stop-color:#003DFF"/>
		</linearGradient>
		<path class="st1" d="M980.6,909.4H529.1c-23.9,0-43.4-19.5-43.4-43.4V312.3c0-117.3,95.4-212.7,212.7-212.7h282.2
			c23.9,0,43.4,19.5,43.4,43.4v722.9C1024,889.9,1004.5,909.4,980.6,909.4z M540.6,854.4h428.5V154.6H698.3
			c-87,0-157.8,70.8-157.8,157.8V854.4z"/>
	</g>
	<g>
		<linearGradient id="SVGID_3_" gradientUnits="userSpaceOnUse" x1="44.0878" y1="965.806" x2="882.2886" y2="336.3139">
			<stop  offset="0" style="stop-color:#64FFC0"/>
			<stop  offset="3.719538e-02" style="stop-color:#60F7C3"/>
			<stop  offset="0.5129" style="stop-color:#2D94E3"/>
			<stop  offset="0.8439" style="stop-color:#0D55F7"/>
			<stop  offset="1" style="stop-color:#003DFF"/>
		</linearGradient>
		<path class="st2" d="M500.1,908.3H38.3C17.2,908.3,0,891.1,0,870V723.5c0-21.1,17.2-38.3,38.3-38.3h347.2
			c84.3,0,152.9,68.6,152.9,152.9V870C538.4,891.1,521.2,908.3,500.1,908.3z M54.9,853.3h428.5v-15.2c0-54-43.9-98-98-98H54.9V853.3
			z"/>
	</g>
	<g>
		<linearGradient id="SVGID_4_" gradientUnits="userSpaceOnUse" x1="232.6016" y1="1216.8217" x2="1070.8022" y2="587.3295">
			<stop  offset="0" style="stop-color:#64FFC0"/>
			<stop  offset="3.719538e-02" style="stop-color:#60F7C3"/>
			<stop  offset="0.5129" style="stop-color:#2D94E3"/>
			<stop  offset="0.8439" style="stop-color:#0D55F7"/>
			<stop  offset="1" style="stop-color:#003DFF"/>
		</linearGradient>
		<path class="st3" d="M984.6,908.3H522.8c-21.1,0-38.3-17.2-38.3-38.3v-31.9c0-84.3,68.6-152.9,152.9-152.9h347.2
			c21.1,0,38.3,17.2,38.3,38.3V870C1022.9,891.1,1005.7,908.3,984.6,908.3z M539.5,853.3H968V740.2H637.4c-54,0-98,43.9-98,98V853.3
			z"/>
	</g>
	<g>
		<linearGradient id="SVGID_5_" gradientUnits="userSpaceOnUse" x1="-186.7929" y1="658.3766" x2="651.4078" y2="28.8845">
			<stop  offset="0" style="stop-color:#64FFC0"/>
			<stop  offset="3.719538e-02" style="stop-color:#60F7C3"/>
			<stop  offset="0.5129" style="stop-color:#2D94E3"/>
			<stop  offset="0.8439" style="stop-color:#0D55F7"/>
			<stop  offset="1" style="stop-color:#003DFF"/>
		</linearGradient>
		<path class="st4" d="M388.9,358.9h-234c-24.8,0-45-20.2-45-45c0-24.8,20.2-45,45-45h234c24.8,0,45,20.2,45,45
			C434,338.7,413.8,358.9,388.9,358.9z M388.9,323.8L388.9,323.8L388.9,323.8z"/>
	</g>
	<g>
		<linearGradient id="SVGID_6_" gradientUnits="userSpaceOnUse" x1="-117.8934" y1="750.1198" x2="720.3073" y2="120.6277">
			<stop  offset="0" style="stop-color:#64FFC0"/>
			<stop  offset="3.719538e-02" style="stop-color:#60F7C3"/>
			<stop  offset="0.5129" style="stop-color:#2D94E3"/>
			<stop  offset="0.8439" style="stop-color:#0D55F7"/>
			<stop  offset="1" style="stop-color:#003DFF"/>
		</linearGradient>
		<path class="st5" d="M386.7,504.1h-234c-24.8,0-45-20.2-45-45c0-24.8,20.2-45,45-45h234c24.8,0,45,20.2,45,45
			C431.8,483.8,411.6,504.1,386.7,504.1z M386.7,468.9L386.7,468.9L386.7,468.9z"/>
	</g>
	<g>
		<linearGradient id="SVGID_7_" gradientUnits="userSpaceOnUse" x1="-55.6372" y1="833.017" x2="782.5635" y2="203.5249">
			<stop  offset="0" style="stop-color:#64FFC0"/>
			<stop  offset="3.719538e-02" style="stop-color:#60F7C3"/>
			<stop  offset="0.5129" style="stop-color:#2D94E3"/>
			<stop  offset="0.8439" style="stop-color:#0D55F7"/>
			<stop  offset="1" style="stop-color:#003DFF"/>
		</linearGradient>
		<path class="st6" d="M386.7,633.7h-234c-24.8,0-45-20.2-45-45c0-24.8,20.2-45,45-45h234c24.8,0,45,20.2,45,45
			C431.8,613.5,411.6,633.7,386.7,633.7z M386.7,598.5L386.7,598.5L386.7,598.5z"/>
	</g>
	<g>
		<linearGradient id="SVGID_8_" gradientUnits="userSpaceOnUse" x1="-12.1939" y1="890.8641" x2="826.0068" y2="261.372">
			<stop  offset="0" style="stop-color:#64FFC0"/>
			<stop  offset="3.719538e-02" style="stop-color:#60F7C3"/>
			<stop  offset="0.5129" style="stop-color:#2D94E3"/>
			<stop  offset="0.8439" style="stop-color:#0D55F7"/>
			<stop  offset="1" style="stop-color:#003DFF"/>
		</linearGradient>
		<path class="st7" d="M874.6,357.8h-234c-24.8,0-45-20.2-45-45c0-24.8,20.2-45,45-45h234c24.8,0,45,20.2,45,45
			C919.6,337.6,899.4,357.8,874.6,357.8z M874.6,322.7L874.6,322.7L874.6,322.7z"/>
	</g>
	<g>
		<linearGradient id="SVGID_9_" gradientUnits="userSpaceOnUse" x1="56.7057" y1="982.6073" x2="894.9064" y2="353.1152">
			<stop  offset="0" style="stop-color:#64FFC0"/>
			<stop  offset="3.719538e-02" style="stop-color:#60F7C3"/>
			<stop  offset="0.5129" style="stop-color:#2D94E3"/>
			<stop  offset="0.8439" style="stop-color:#0D55F7"/>
			<stop  offset="1" style="stop-color:#003DFF"/>
		</linearGradient>
		<path class="st8" d="M872.4,503h-234c-24.8,0-45-20.2-45-45c0-24.8,20.2-45,45-45h234c24.8,0,45,20.2,45,45
			C917.4,482.8,897.2,503,872.4,503z M872.4,467.8L872.4,467.8L872.4,467.8z"/>
	</g>
	<g>
		<linearGradient id="SVGID_10_" gradientUnits="userSpaceOnUse" x1="118.9618" y1="1065.5045" x2="957.1625" y2="436.0124">
			<stop  offset="0" style="stop-color:#64FFC0"/>
			<stop  offset="3.719538e-02" style="stop-color:#60F7C3"/>
			<stop  offset="0.5129" style="stop-color:#2D94E3"/>
			<stop  offset="0.8439" style="stop-color:#0D55F7"/>
			<stop  offset="1" style="stop-color:#003DFF"/>
		</linearGradient>
		<path class="st9" d="M872.4,632.6h-234c-24.8,0-45-20.2-45-45c0-24.8,20.2-45,45-45h234c24.8,0,45,20.2,45,45
			C917.4,612.4,897.2,632.6,872.4,632.6z M872.4,597.5L872.4,597.5L872.4,597.5z"/>
	</g>
</g>
</svg>
