<?xml version="1.0" encoding="utf-8"?>
<!-- Generator: Adobe Illustrator 23.0.3, SVG Export Plug-In . SVG Version: 6.00 Build 0)  -->
<svg version="1.1" id="Слой_1" xmlns="http://www.w3.org/2000/svg" xmlns:xlink="http://www.w3.org/1999/xlink" x="0px" y="0px"
	 viewBox="0 0 1024 1024" style="enable-background:new 0 0 1024 1024;" xml:space="preserve">
<style type="text/css">
	.st0{fill:none;stroke:#64FFC0;stroke-width:40;stroke-linecap:round;stroke-linejoin:round;stroke-miterlimit:10;}
	.st1{fill:none;stroke:#64FFC0;stroke-width:41;stroke-linecap:round;stroke-linejoin:round;stroke-miterlimit:10;}
	.st2{fill:url(#SVGID_1_);}
	.st3{fill:url(#SVGID_2_);}
	.st4{fill:url(#SVGID_3_);}
	.st5{fill:url(#SVGID_4_);}
	.st6{fill:#1A5FA3;}
	.st7{fill:url(#SVGID_5_);}
	.st8{fill:url(#SVGID_6_);}
	.st9{fill:url(#SVGID_7_);}
	.st10{fill:url(#SVGID_8_);}
	.st11{fill:url(#SVGID_9_);}
</style>
<g>
	<path class="st0" d="M599.5,838.9c0,0-219.6-178.6-504.5,0"/>
	<path class="st1" d="M217.1,452.5c0,0,116.9,111.9,258.3,0"/>
	<path class="st1" d="M474.4,953.7c0,0-116.9-111.9-258.3,0"/>
	<path class="st0" d="M277.1,493c0,0-160.2,179.8,0,413"/>
	<path class="st0" d="M403.2,905.3c0,0,132.7-178.9,0-411.1"/>
	<path class="st0" d="M94,566.3c0,0,219.6,178.6,504.5,0"/>
	
		<radialGradient id="SVGID_1_" cx="119.115" cy="49.9836" r="1360.2976" gradientTransform="matrix(1 0 0 -1 0 1023.2756)" gradientUnits="userSpaceOnUse">
		<stop  offset="0" style="stop-color:#64FFC0"/>
		<stop  offset="3.719538e-02" style="stop-color:#60F7C3"/>
		<stop  offset="0.5129" style="stop-color:#2D94E3"/>
		<stop  offset="0.8439" style="stop-color:#0D55F7"/>
		<stop  offset="1" style="stop-color:#003DFF"/>
	</radialGradient>
	<path class="st2" d="M345.8,380.3C168,380.3,23.9,524.4,23.9,702.2S168,1024,345.8,1024s321.8-144.1,321.8-321.8
		S523.5,380.3,345.8,380.3z M345.2,973.2c-150,0-271.5-121.6-271.5-271.5s121.6-271.5,271.5-271.5s271.5,121.6,271.5,271.5
		S495.2,973.2,345.2,973.2z"/>
	
		<radialGradient id="SVGID_2_" cx="119.115" cy="49.9836" r="1360.2976" gradientTransform="matrix(1 0 0 -1 0 1023.2756)" gradientUnits="userSpaceOnUse">
		<stop  offset="0" style="stop-color:#64FFC0"/>
		<stop  offset="3.719538e-02" style="stop-color:#60F7C3"/>
		<stop  offset="0.5129" style="stop-color:#2D94E3"/>
		<stop  offset="0.8439" style="stop-color:#0D55F7"/>
		<stop  offset="1" style="stop-color:#003DFF"/>
	</radialGradient>
	<path class="st3" d="M579.1,448.3c0,0,96.7-105.6,245.5,0c125.1,88.8,176.9,255.4,173.3,343.9c-3.9,98.3-62.4,81.3-62.4,81.3
		l-292.8,1C642.7,874.5,788.8,649.8,579.1,448.3z"/>
	
		<radialGradient id="SVGID_3_" cx="117.5007" cy="46.7162" r="1364.764" gradientTransform="matrix(1 0 0 -1 0 1023.2756)" gradientUnits="userSpaceOnUse">
		<stop  offset="0" style="stop-color:#64FFC0"/>
		<stop  offset="3.719538e-02" style="stop-color:#60F7C3"/>
		<stop  offset="0.5129" style="stop-color:#2D94E3"/>
		<stop  offset="0.8439" style="stop-color:#0D55F7"/>
		<stop  offset="1" style="stop-color:#003DFF"/>
	</radialGradient>
	<path class="st4" d="M801.6,184.4l-143.4-56.3c-4.6-1.8-6.8-7-5-11.5l18.4-46.9c1.8-4.6,7-6.8,11.5-5L826.5,121
		c4.6,1.8,6.8,7,5,11.5l-18.4,46.9C811.3,184,806.2,186.2,801.6,184.4z"/>
	<g>
		<g>
			
				<radialGradient id="SVGID_4_" cx="119.115" cy="49.9836" r="1360.2976" gradientTransform="matrix(1 0 0 -1 0 1023.2756)" gradientUnits="userSpaceOnUse">
				<stop  offset="0" style="stop-color:#64FFC0"/>
				<stop  offset="3.719538e-02" style="stop-color:#60F7C3"/>
				<stop  offset="0.5129" style="stop-color:#2D94E3"/>
				<stop  offset="0.8439" style="stop-color:#0D55F7"/>
				<stop  offset="1" style="stop-color:#003DFF"/>
			</radialGradient>
			<path class="st5" d="M582.9,8.4l128.7,123c6.3,6,25.7,13.3,43.4,16.2L920.5,175c17.7,2.9,26.9,0.4,20.6-5.6l-128.7-123
				c-6.3-6-25.7-13.3-43.4-16.2L603.5,2.8C585.8-0.1,576.6,2.4,582.9,8.4z"/>
		</g>
	</g>
	<g>
		<g>
			<path class="st6" d="M884.2,223.1c-5.6,0-10.3-4.3-10.8-9.9c-4.6-53.3-33.8-93.9-34.1-94.3c-3.5-4.9-2.5-11.7,2.4-15.2
				c4.8-3.5,11.6-2.5,15.2,2.3c1.3,1.8,33.1,45.7,38.2,105.3c0.5,6-3.9,11.3-9.9,11.8C884.8,223.1,884.5,223.1,884.2,223.1z"/>
		</g>
	</g>
	<g>
		<g>
			<path class="st6" d="M920.9,274.9c-1.7,0-3.5-0.4-5.2-1.3c-32.6-17.5-42.1-56.4-42.4-58c-1.4-5.8,2.2-11.7,8.1-13.1
				c5.8-1.4,11.7,2.2,13.1,8.1c0.1,0.6,7.9,31.1,31.6,43.9c5.3,2.9,7.3,9.4,4.4,14.7C928.5,272.8,924.7,274.9,920.9,274.9z"/>
		</g>
	</g>
	<g>
		<g>
			<path class="st6" d="M895.3,318c-3.8,0-7.5-2-9.5-5.6c-21.2-38-14.6-79.7-14.3-81.4c1-5.9,6.6-9.9,12.5-8.9s9.9,6.6,8.9,12.5
				c-0.1,0.5-5.6,36.2,11.8,67.3c2.9,5.2,1.1,11.9-4.2,14.8C899,317.5,897.1,318,895.3,318z"/>
		</g>
	</g>
	<g>
		<g>
			<circle class="st6" cx="883.6" cy="224" r="21.5"/>
		</g>
	</g>
</g>
<g>
	<radialGradient id="SVGID_5_" cx="119.3242" cy="974.2213" r="1363.0425" gradientUnits="userSpaceOnUse">
		<stop  offset="0" style="stop-color:#64FFC0"/>
		<stop  offset="3.719538e-02" style="stop-color:#60F7C3"/>
		<stop  offset="0.5129" style="stop-color:#2D94E3"/>
		<stop  offset="0.8439" style="stop-color:#0D55F7"/>
		<stop  offset="1" style="stop-color:#003DFF"/>
	</radialGradient>
	<circle class="st7" cx="689.8" cy="239.9" r="141.1"/>
	<g>
		<path class="st0" d="M600.6,839.6c0,0-220-179-505.5,0"/>
		<path class="st1" d="M217.5,452.4c0,0,117.2,112.1,258.8,0"/>
		<path class="st1" d="M475.3,954.6c0,0-117.2-112.1-258.8,0"/>
		<path class="st0" d="M277.6,493c0,0-160.5,180.1,0,413.8"/>
		<path class="st0" d="M404,906.1c0,0,133-179.3,0-411.9"/>
		<path class="st0" d="M94.1,566.4c0,0,220,179,505.5,0"/>
		<radialGradient id="SVGID_6_" cx="119.3242" cy="974.2213" r="1363.0425" gradientUnits="userSpaceOnUse">
			<stop  offset="0" style="stop-color:#64FFC0"/>
			<stop  offset="3.719538e-02" style="stop-color:#60F7C3"/>
			<stop  offset="0.5129" style="stop-color:#2D94E3"/>
			<stop  offset="0.8439" style="stop-color:#0D55F7"/>
			<stop  offset="1" style="stop-color:#003DFF"/>
		</radialGradient>
		<path class="st8" d="M346.4,380C168.3,380,23.9,524.4,23.9,702.5S168.3,1025,346.4,1025s322.5-144.4,322.5-322.5
			S524.5,380,346.4,380z M345.9,974.1C195.7,974.1,73.9,852.3,73.9,702S195.7,430,345.9,430S618,551.8,618,702
			S496.2,974.1,345.9,974.1z"/>
		<radialGradient id="SVGID_7_" cx="119.3242" cy="974.2213" r="1363.0425" gradientUnits="userSpaceOnUse">
			<stop  offset="0" style="stop-color:#64FFC0"/>
			<stop  offset="3.719538e-02" style="stop-color:#60F7C3"/>
			<stop  offset="0.5129" style="stop-color:#2D94E3"/>
			<stop  offset="0.8439" style="stop-color:#0D55F7"/>
			<stop  offset="1" style="stop-color:#003DFF"/>
		</radialGradient>
		<path class="st9" d="M580.3,448.1c0,0,96.9-105.8,246,0c125.4,89,177.2,255.9,173.7,344.6c-3.9,98.5-62.6,81.5-62.6,81.5l-293.4,1
			C643.9,875.2,790.3,650.1,580.3,448.1z"/>
		<radialGradient id="SVGID_8_" cx="117.6698" cy="977.5701" r="1367.6202" gradientUnits="userSpaceOnUse">
			<stop  offset="0" style="stop-color:#64FFC0"/>
			<stop  offset="3.719538e-02" style="stop-color:#60F7C3"/>
			<stop  offset="0.5129" style="stop-color:#2D94E3"/>
			<stop  offset="0.8439" style="stop-color:#0D55F7"/>
			<stop  offset="1" style="stop-color:#003DFF"/>
		</radialGradient>
		<path class="st10" d="M803.2,183.8l-143.7-56.5c-4.6-1.8-6.8-7-5-11.5l18.5-47c1.8-4.6,7-6.8,11.5-5l143.7,56.5
			c4.6,1.8,6.8,7,5,11.5l-18.5,47C812.9,183.3,807.8,185.6,803.2,183.8z"/>
		<g>
			<g>
				<radialGradient id="SVGID_9_" cx="119.3242" cy="974.2213" r="1363.0425" gradientUnits="userSpaceOnUse">
					<stop  offset="0" style="stop-color:#64FFC0"/>
					<stop  offset="3.719538e-02" style="stop-color:#60F7C3"/>
					<stop  offset="0.5129" style="stop-color:#2D94E3"/>
					<stop  offset="0.8439" style="stop-color:#0D55F7"/>
					<stop  offset="1" style="stop-color:#003DFF"/>
				</radialGradient>
				<path class="st11" d="M584,7.4L713,130.7c6.3,6,25.8,13.3,43.5,16.2l165.9,27.4c17.7,2.9,26.9,0.4,20.6-5.6L814,45.4
					c-6.3-6-25.8-13.3-43.5-16.2L604.7,1.8C587-1.1,577.7,1.4,584,7.4z"/>
			</g>
		</g>
		<g>
			<g>
				<path class="st6" d="M885.9,222.5c-5.6,0-10.4-4.3-10.8-10c-4.6-53.4-33.8-94.1-34.1-94.5c-3.5-4.9-2.5-11.7,2.4-15.2
					c4.9-3.5,11.7-2.5,15.2,2.3c1.4,1.8,33.1,45.8,38.3,105.5c0.5,6-3.9,11.3-9.9,11.8C886.6,222.5,886.3,222.5,885.9,222.5z"/>
			</g>
		</g>
		<g>
			<g>
				<path class="st6" d="M922.7,274.4c-1.7,0-3.5-0.4-5.2-1.3c-32.6-17.6-42.1-56.5-42.5-58.1c-1.4-5.9,2.2-11.7,8.1-13.1
					c5.8-1.4,11.7,2.2,13.1,8.1c0.1,0.6,7.9,31.1,31.7,44c5.3,2.9,7.3,9.5,4.4,14.8C930.3,272.3,926.6,274.4,922.7,274.4z"/>
			</g>
		</g>
		<g>
			<g>
				<path class="st6" d="M897.1,317.6c-3.8,0-7.5-2-9.5-5.6c-21.3-38.1-14.6-79.8-14.3-81.6c1-5.9,6.6-10,12.6-9
					c5.9,1,9.9,6.6,9,12.5c-0.1,0.5-5.6,36.2,11.8,67.4c2.9,5.3,1.1,11.9-4.2,14.8C900.7,317.1,898.9,317.6,897.1,317.6z"/>
			</g>
		</g>
		<g>
			<g>
				<circle class="st6" cx="885.3" cy="223.4" r="21.6"/>
			</g>
		</g>
	</g>
</g>
</svg>
