<?xml version="1.0" encoding="UTF-8" standalone="no"?>
<!DOCTYPE svg PUBLIC "-//W3C//DTD SVG 1.1//EN" "http://www.w3.org/Graphics/SVG/1.1/DTD/svg11.dtd">
<svg width="100%" height="100%" viewBox="0 0 1024 1024" version="1.1" xmlns="http://www.w3.org/2000/svg" xmlns:xlink="http://www.w3.org/1999/xlink" xml:space="preserve" xmlns:serif="http://www.serif.com/" style="fill-rule:evenodd;clip-rule:evenodd;stroke-linecap:round;stroke-linejoin:round;stroke-miterlimit:2;">
    <g>
        <g>
            <path d="M512,488C424.3,488 353,416.7 353,329C353,241.3 424.3,170 512,170C599.7,170 671,241.3 671,329C671,416.7 599.7,488 512,488ZM512,206.8C444.6,206.8 389.8,261.6 389.8,329C389.8,396.4 444.6,451.3 512,451.3C579.4,451.3 634.3,396.4 634.3,329C634.3,261.6 579.4,206.8 512,206.8Z" style="fill:url(#_Linear1);fill-rule:nonzero;stroke:url(#_Linear2);stroke-width:20px;"/>
            <path d="M508.1,863.4C486.3,863.4 465,862.4 444.2,860.3C384.5,854.4 329.3,839.9 280,817.2L270.7,812.9L269.4,802.8C269.1,800.4 262.1,743.6 272.3,677.6C278.4,638.2 289.5,603.7 305.2,574.9C325.4,537.9 353.3,510.5 388,493.5L398.1,488.6L407.1,495.3C407.6,495.7 432,513.3 469.3,521.5C518.6,532.5 566.7,522.8 612.2,492.8L619.2,488.2L627.3,490.5C629.1,491 672.3,503.7 709.6,550.8C731.1,577.9 746.5,611 755.3,649.1C766.1,695.7 767,750 758.1,810.5L756.5,821.4L746.2,825.1C743.6,826 682.1,848 593.9,858.2C564.7,861.7 536.1,863.4 508.1,863.4ZM305,788.1C405.8,831.4 514.9,830.5 589.6,821.8C653.2,814.4 702.7,800.5 723.3,794C735.3,699.9 720.7,623.8 680.9,573.7C659.5,546.7 635.9,533.8 624.4,528.7C559.4,568.3 499.3,566.2 459.7,557.1C430.1,550.3 407.5,538.7 395.4,531.4C349.7,557.9 320.7,608.7 309,682.5C301.7,727.9 303.6,769.6 305,788.1Z" style="fill:url(#_Linear3);fill-rule:nonzero;stroke:url(#_Linear4);stroke-width:20px;"/>
            <path d="M792.8,720C776.8,720 760.4,719.4 743.7,717.9C735,717.1 728,710.3 727.1,701.7C720.6,644.5 700.5,599.5 667.3,567.8C647.7,549 629,540.7 622,538C616.4,537.5 611.4,534.4 608.5,530.2C605,525.2 604.1,518.2 606.9,512.1C619.1,472.2 638.9,428.4 690.2,403.2C696.4,400.2 703.8,400.9 709.3,405C709.4,405.1 729.7,419.8 760.7,426.6C801.3,435.6 841,427.6 878.5,402.8C883,399.9 888.5,399 893.6,400.5C895.2,400.9 932.3,411.9 964.4,452.2C982.8,475.4 995.9,503.6 1003.4,536.1C1012.5,575.6 1013.3,621.7 1005.8,673.1C1004.8,679.8 1000.2,685.4 993.9,687.7C989.6,689.2 902.7,720 792.8,720ZM761.5,682.3C857.2,687.9 942,665.2 970.9,656.4C980.3,580 968.7,518.1 937,476.8C919.8,454.4 900.6,443.3 890.5,438.6C835.4,471.6 784.6,469.8 751,462C726.9,456.5 708.3,447.2 697.5,440.9C670.1,457.5 656.1,482.3 646.7,508.6C658.3,514.3 674.4,523.9 690.9,539.3C708.8,556 723.9,576.2 735.6,599.3C748,624 756.7,651.8 761.5,682.3Z" style="fill:url(#_Linear5);fill-rule:nonzero;stroke:url(#_Linear6);stroke-width:20px;"/>
            <path d="M795.1,404.4C733,404.4 682.5,353.9 682.5,291.8C682.5,229.7 733,179.2 795.1,179.2C857.2,179.2 907.7,229.7 907.7,291.8C907.7,353.9 857.2,404.4 795.1,404.4ZM795.1,216C753.3,216 719.3,250 719.3,291.8C719.3,333.6 753.3,367.6 795.1,367.6C836.9,367.6 870.9,333.6 870.9,291.8C870.9,250 836.9,216 795.1,216Z" style="fill:url(#_Linear7);fill-rule:nonzero;stroke:url(#_Linear8);stroke-width:20px;"/>
            <path d="M231.7,720C121.8,720 34.9,689.1 30.7,687.6C24.3,685.3 19.7,679.7 18.8,673C11.2,621.7 12,575.6 21.2,536C28.7,503.5 41.9,475.2 60.2,452.1C92.2,411.8 129.4,400.8 131,400.4C136.1,398.9 141.7,399.8 146.1,402.7C183.6,427.4 223.3,435.4 263.9,426.5C294.9,419.7 315.2,405 315.4,404.8C320.9,400.7 328.2,400 334.4,403.1C385.7,428.2 405.4,472 417.7,512C420.5,518.1 419.5,525.1 416.1,530.1C413.2,534.3 408.2,537.4 402.6,537.9C395.6,540.6 376.9,548.9 357.3,567.7C324.1,599.4 304,644.5 297.5,701.6C296.5,710.3 289.6,717.1 280.9,717.8C264.1,719.4 247.6,720 231.7,720ZM53.6,656.5C82.4,665.3 167.2,688 263,682.4C267.8,651.8 276.6,624 289,599.5C300.7,576.4 315.8,556.2 333.7,539.5C350.2,524.1 366.3,514.5 377.9,508.8C368.5,482.6 354.5,457.7 327.1,441.1C316.3,447.4 297.7,456.6 273.6,462.2C240,469.9 189.2,471.8 134.1,438.8C124,443.5 104.8,454.6 87.6,477C55.9,518.1 44.2,580.1 53.6,656.5Z" style="fill:url(#_Linear9);fill-rule:nonzero;stroke:url(#_Linear10);stroke-width:20px;"/>
            <path d="M229.4,404.4C167.3,404.4 116.8,353.9 116.8,291.8C116.8,229.7 167.3,179.2 229.4,179.2C291.5,179.2 342,229.7 342,291.8C342,353.9 291.5,404.4 229.4,404.4ZM229.4,216C187.6,216 153.6,250 153.6,291.8C153.6,333.6 187.6,367.6 229.4,367.6C271.2,367.6 305.2,333.6 305.2,291.8C305.2,250 271.2,216 229.4,216Z" style="fill:url(#_Linear11);fill-rule:nonzero;stroke:url(#_Linear12);stroke-width:20px;"/>
        </g>
    </g>
    <defs>
        <linearGradient id="_Linear1" x1="0" y1="0" x2="1" y2="0" gradientUnits="userSpaceOnUse" gradientTransform="matrix(466.063,-433.678,433.678,466.063,111.813,701.41)"><stop offset="0" style="stop-color:rgb(100,255,192);stop-opacity:1"/><stop offset="0.2" style="stop-color:rgb(60,177,217);stop-opacity:1"/><stop offset="0.42" style="stop-color:rgb(19,97,243);stop-opacity:1"/><stop offset="1" style="stop-color:rgb(0,61,255);stop-opacity:1"/></linearGradient>
        <linearGradient id="_Linear2" x1="0" y1="0" x2="1" y2="0" gradientUnits="userSpaceOnUse" gradientTransform="matrix(997.24,0,0,693.4,13.6429,516.7)"><stop offset="0" style="stop-color:rgb(100,255,192);stop-opacity:1"/><stop offset="0.21" style="stop-color:rgb(61,180,217);stop-opacity:1"/><stop offset="0.43" style="stop-color:rgb(20,100,243);stop-opacity:1"/><stop offset="1" style="stop-color:rgb(0,62,255);stop-opacity:1"/></linearGradient>
        <linearGradient id="_Linear3" x1="0" y1="0" x2="1" y2="0" gradientUnits="userSpaceOnUse" gradientTransform="matrix(466.063,-433.678,433.678,466.063,301.014,904.74)"><stop offset="0" style="stop-color:rgb(100,255,192);stop-opacity:1"/><stop offset="0.2" style="stop-color:rgb(60,177,217);stop-opacity:1"/><stop offset="0.42" style="stop-color:rgb(19,97,243);stop-opacity:1"/><stop offset="1" style="stop-color:rgb(0,61,255);stop-opacity:1"/></linearGradient>
        <linearGradient id="_Linear4" x1="0" y1="0" x2="1" y2="0" gradientUnits="userSpaceOnUse" gradientTransform="matrix(997.24,0,0,693.4,13.6429,516.7)"><stop offset="0" style="stop-color:rgb(100,255,192);stop-opacity:1"/><stop offset="0.21" style="stop-color:rgb(61,180,217);stop-opacity:1"/><stop offset="0.43" style="stop-color:rgb(20,100,243);stop-opacity:1"/><stop offset="1" style="stop-color:rgb(0,62,255);stop-opacity:1"/></linearGradient>
        <linearGradient id="_Linear5" x1="0" y1="0" x2="1" y2="0" gradientUnits="userSpaceOnUse" gradientTransform="matrix(466.063,-433.678,433.678,466.063,371.183,980.148)"><stop offset="0" style="stop-color:rgb(100,255,192);stop-opacity:1"/><stop offset="0.2" style="stop-color:rgb(60,177,217);stop-opacity:1"/><stop offset="0.42" style="stop-color:rgb(19,97,243);stop-opacity:1"/><stop offset="1" style="stop-color:rgb(0,61,255);stop-opacity:1"/></linearGradient>
        <linearGradient id="_Linear6" x1="0" y1="0" x2="1" y2="0" gradientUnits="userSpaceOnUse" gradientTransform="matrix(997.24,0,0,693.4,13.6429,516.7)"><stop offset="0" style="stop-color:rgb(100,255,192);stop-opacity:1"/><stop offset="0.21" style="stop-color:rgb(61,180,217);stop-opacity:1"/><stop offset="0.43" style="stop-color:rgb(20,100,243);stop-opacity:1"/><stop offset="1" style="stop-color:rgb(0,62,255);stop-opacity:1"/></linearGradient>
        <linearGradient id="_Linear7" x1="0" y1="0" x2="1" y2="0" gradientUnits="userSpaceOnUse" gradientTransform="matrix(466.062,-433.678,433.678,466.062,224.619,822.64)"><stop offset="0" style="stop-color:rgb(100,255,192);stop-opacity:1"/><stop offset="0.2" style="stop-color:rgb(60,177,217);stop-opacity:1"/><stop offset="0.42" style="stop-color:rgb(19,97,243);stop-opacity:1"/><stop offset="1" style="stop-color:rgb(0,61,255);stop-opacity:1"/></linearGradient>
        <linearGradient id="_Linear8" x1="0" y1="0" x2="1" y2="0" gradientUnits="userSpaceOnUse" gradientTransform="matrix(997.24,0,0,693.4,13.6429,516.7)"><stop offset="0" style="stop-color:rgb(100,255,192);stop-opacity:1"/><stop offset="0.21" style="stop-color:rgb(61,180,217);stop-opacity:1"/><stop offset="0.43" style="stop-color:rgb(20,100,243);stop-opacity:1"/><stop offset="1" style="stop-color:rgb(0,62,255);stop-opacity:1"/></linearGradient>
        <linearGradient id="_Linear9" x1="0" y1="0" x2="1" y2="0" gradientUnits="userSpaceOnUse" gradientTransform="matrix(466.063,-433.678,433.678,466.063,81.6561,669.001)"><stop offset="0" style="stop-color:rgb(100,255,192);stop-opacity:1"/><stop offset="0.2" style="stop-color:rgb(60,177,217);stop-opacity:1"/><stop offset="0.42" style="stop-color:rgb(19,97,243);stop-opacity:1"/><stop offset="1" style="stop-color:rgb(0,61,255);stop-opacity:1"/></linearGradient>
        <linearGradient id="_Linear10" x1="0" y1="0" x2="1" y2="0" gradientUnits="userSpaceOnUse" gradientTransform="matrix(997.24,0,0,693.4,13.6429,516.7)"><stop offset="0" style="stop-color:rgb(100,255,192);stop-opacity:1"/><stop offset="0.21" style="stop-color:rgb(61,180,217);stop-opacity:1"/><stop offset="0.43" style="stop-color:rgb(20,100,243);stop-opacity:1"/><stop offset="1" style="stop-color:rgb(0,62,255);stop-opacity:1"/></linearGradient>
        <linearGradient id="_Linear11" x1="0" y1="0" x2="1" y2="0" gradientUnits="userSpaceOnUse" gradientTransform="matrix(466.063,-433.678,433.678,466.063,-37.9095,540.507)"><stop offset="0" style="stop-color:rgb(100,255,192);stop-opacity:1"/><stop offset="0.2" style="stop-color:rgb(60,177,217);stop-opacity:1"/><stop offset="0.42" style="stop-color:rgb(19,97,243);stop-opacity:1"/><stop offset="1" style="stop-color:rgb(0,61,255);stop-opacity:1"/></linearGradient>
        <linearGradient id="_Linear12" x1="0" y1="0" x2="1" y2="0" gradientUnits="userSpaceOnUse" gradientTransform="matrix(997.24,0,0,693.4,13.6429,516.7)"><stop offset="0" style="stop-color:rgb(100,255,192);stop-opacity:1"/><stop offset="0.21" style="stop-color:rgb(61,180,217);stop-opacity:1"/><stop offset="0.43" style="stop-color:rgb(20,100,243);stop-opacity:1"/><stop offset="1" style="stop-color:rgb(0,62,255);stop-opacity:1"/></linearGradient>
    </defs>
</svg>
